<svg id="Capa_1" enable-background="new 0 0 511.997 511.997" height="512" viewBox="0 0 511.997 511.997" width="512" xmlns="http://www.w3.org/2000/svg"><g><g><g><g><circle cx="186.497" cy="81.19" fill="#ecbe6b" r="22.15"/><path d="m192.991 102.376c-2.049.627-4.234.965-6.492.965-12.233 0-22.151-9.918-22.151-22.151s9.918-22.151 22.151-22.151c2.258 0 4.443.339 6.492.965-9.06 2.777-15.648 11.211-15.648 21.186s6.588 18.409 15.648 21.186z" fill="#eab14d"/></g><g><circle cx="325.499" cy="81.19" fill="#e28086" r="22.15"/><path d="m331.993 102.376c-2.049.627-4.234.965-6.492.965-12.233 0-22.151-9.918-22.151-22.151s9.918-22.151 22.151-22.151c2.258 0 4.443.339 6.492.965-9.06 2.777-15.648 11.211-15.648 21.186-.001 9.975 6.587 18.409 15.648 21.186z" fill="#dd636e"/></g></g><g><g><circle cx="186.497" cy="204.458" fill="#ecbe6b" r="22.15"/><path d="m192.991 225.644c-2.049.627-4.234.965-6.492.965-12.233 0-22.151-9.918-22.151-22.151s9.918-22.151 22.151-22.151c2.258 0 4.443.339 6.492.965-9.06 2.777-15.648 11.211-15.648 21.186s6.588 18.408 15.648 21.186z" fill="#eab14d"/></g><g><circle cx="325.499" cy="204.458" fill="#e28086" r="22.15"/><path d="m331.993 225.644c-2.049.627-4.234.965-6.492.965-12.233 0-22.151-9.918-22.151-22.151s9.918-22.151 22.151-22.151c2.258 0 4.443.339 6.492.965-9.06 2.777-15.648 11.211-15.648 21.186-.001 9.975 6.587 18.408 15.648 21.186z" fill="#dd636e"/></g></g><g><g><circle cx="132.789" cy="142.824" fill="#ecbe6b" r="22.15"/><path d="m139.283 164.01c-2.049.627-4.234.965-6.492.965-12.233 0-22.151-9.918-22.151-22.151s9.918-22.151 22.151-22.151c2.258 0 4.443.339 6.492.965-9.06 2.777-15.648 11.211-15.648 21.186s6.587 18.409 15.648 21.186z" fill="#eab14d"/></g><g><circle cx="379.207" cy="142.824" fill="#e28086" r="22.15"/><path d="m385.701 164.01c-2.049.627-4.234.965-6.492.965-12.233 0-22.151-9.918-22.151-22.151s9.918-22.151 22.151-22.151c2.258 0 4.443.339 6.492.965-9.06 2.777-15.648 11.211-15.648 21.186s6.587 18.409 15.648 21.186z" fill="#dd636e"/></g></g><g><circle cx="255.998" cy="255.998" fill="#ecbe6b" r="22.15"/><path d="m262.492 277.184c-2.049.626-4.234.965-6.492.965-12.233 0-22.151-9.918-22.151-22.151s9.918-22.151 22.151-22.151c2.258 0 4.443.339 6.492.965-9.06 2.777-15.648 11.211-15.648 21.186s6.587 18.409 15.648 21.186z" fill="#eab14d"/></g><g><circle cx="255.998" cy="29.65" fill="#e28086" r="22.15"/><path d="m262.492 50.836c-2.049.627-4.234.965-6.492.965-12.233 0-22.151-9.918-22.151-22.151s9.918-22.151 22.151-22.151c2.258 0 4.443.339 6.492.965-9.06 2.777-15.648 11.211-15.648 21.186s6.587 18.408 15.648 21.186z" fill="#dd636e"/></g><g><g><circle cx="186.497" cy="307.539" fill="#e28086" r="22.15"/><path d="m192.991 328.725c-2.049.627-4.234.965-6.492.965-12.233 0-22.151-9.918-22.151-22.151s9.918-22.151 22.151-22.151c2.258 0 4.443.339 6.492.965-9.06 2.777-15.648 11.211-15.648 21.186s6.588 18.409 15.648 21.186z" fill="#dd636e"/></g><g><circle cx="325.499" cy="307.539" fill="#ecbe6b" r="22.15"/><path d="m331.993 328.725c-2.049.627-4.234.965-6.492.965-12.233 0-22.151-9.918-22.151-22.151s9.918-22.151 22.151-22.151c2.258 0 4.443.339 6.492.965-9.06 2.777-15.648 11.211-15.648 21.186-.001 9.975 6.587 18.409 15.648 21.186z" fill="#eab14d"/></g></g><g><g><circle cx="186.497" cy="430.806" fill="#e28086" r="22.15"/><path d="m192.991 451.993c-2.049.627-4.234.965-6.492.965-12.233 0-22.151-9.918-22.151-22.151s9.918-22.151 22.151-22.151c2.258 0 4.443.339 6.492.965-9.06 2.777-15.648 11.211-15.648 21.186 0 9.974 6.588 18.408 15.648 21.186z" fill="#dd636e"/></g><g><circle cx="325.499" cy="430.806" fill="#ecbe6b" r="22.15"/><path d="m331.993 451.993c-2.049.627-4.234.965-6.492.965-12.233 0-22.151-9.918-22.151-22.151s9.918-22.151 22.151-22.151c2.258 0 4.443.339 6.492.965-9.06 2.777-15.648 11.211-15.648 21.186-.001 9.974 6.587 18.408 15.648 21.186z" fill="#eab14d"/></g></g><g><g><circle cx="132.789" cy="369.173" fill="#e28086" r="22.15"/><path d="m139.283 390.359c-2.049.627-4.234.965-6.492.965-12.233 0-22.151-9.918-22.151-22.151s9.918-22.151 22.151-22.151c2.258 0 4.443.339 6.492.965-9.06 2.777-15.648 11.211-15.648 21.186s6.587 18.408 15.648 21.186z" fill="#dd636e"/></g><g><circle cx="379.207" cy="369.173" fill="#ecbe6b" r="22.15"/><path d="m385.701 390.359c-2.049.627-4.234.965-6.492.965-12.233 0-22.151-9.918-22.151-22.151s9.918-22.151 22.151-22.151c2.258 0 4.443.339 6.492.965-9.06 2.777-15.648 11.211-15.648 21.186s6.587 18.408 15.648 21.186z" fill="#eab14d"/></g></g><g><circle cx="255.998" cy="482.347" fill="#ecbe6b" r="22.15"/><path d="m262.492 503.533c-2.049.627-4.234.965-6.492.965-12.233 0-22.151-9.918-22.151-22.151s9.918-22.151 22.151-22.151c2.258 0 4.443.339 6.492.965-9.06 2.777-15.648 11.211-15.648 21.186s6.587 18.409 15.648 21.186z" fill="#eab14d"/></g></g><g><path d="m186.498 110.838c13.758 0 25.355-9.42 28.687-22.148h81.628c3.331 12.729 14.928 22.149 28.686 22.149 16.349 0 29.649-13.301 29.649-29.649 0-16.349-13.301-29.65-29.649-29.65-13.758 0-25.356 9.421-28.686 22.15h-81.627c-3.33-12.73-14.928-22.152-28.688-22.152h-.16c-4.143 0-7.5 3.358-7.5 7.5s3.357 7.5 7.5 7.5h.16c8.078 0 14.65 6.572 14.65 14.65s-6.572 14.65-14.65 14.65-14.65-6.572-14.65-14.65c0-.808.07-1.618.208-2.407.714-4.08-2.015-7.967-6.095-8.681-4.075-.715-7.966 2.015-8.681 6.095-.287 1.64-.433 3.32-.433 4.993.001 16.35 13.302 29.65 29.651 29.65zm139.001-44.297c8.078 0 14.649 6.572 14.649 14.65s-6.571 14.649-14.649 14.649-14.649-6.572-14.649-14.65 6.571-14.649 14.649-14.649z"/><path d="m325.499 174.808c-13.758 0-25.356 9.421-28.686 22.149h-81.629c-3.331-12.729-14.928-22.149-28.686-22.149-16.349 0-29.649 13.301-29.649 29.649 0 16.349 13.301 29.65 29.649 29.65 13.758 0 25.356-9.421 28.686-22.15h81.629c3.33 12.729 14.928 22.15 28.686 22.15 16.349 0 29.649-13.301 29.649-29.65.001-16.348-13.3-29.649-29.649-29.649zm-139.002 44.299c-8.078 0-14.649-6.572-14.649-14.65s6.571-14.649 14.649-14.649 14.649 6.572 14.649 14.649c.001 8.079-6.571 14.65-14.649 14.65zm139.002 0c-8.078 0-14.649-6.572-14.649-14.65s6.571-14.649 14.649-14.649 14.649 6.572 14.649 14.649c.001 8.079-6.571 14.65-14.649 14.65z"/><path d="m132.789 172.474c13.758 0 25.356-9.421 28.686-22.149h189.045c3.331 12.729 14.928 22.149 28.686 22.149 16.349 0 29.649-13.301 29.649-29.649 0-16.349-13.301-29.65-29.649-29.65-13.758 0-25.356 9.421-28.686 22.15h-189.044c-3.33-12.729-14.928-22.15-28.686-22.15-16.349 0-29.649 13.301-29.649 29.65-.001 16.348 13.3 29.649 29.648 29.649zm246.418-44.3c8.078 0 14.649 6.572 14.649 14.65s-6.571 14.649-14.649 14.649-14.649-6.572-14.649-14.649c0-8.078 6.571-14.65 14.649-14.65zm-246.418 0c8.078 0 14.649 6.572 14.649 14.65s-6.571 14.649-14.649 14.649-14.649-6.572-14.649-14.649c0-8.078 6.571-14.65 14.649-14.65z"/><path d="m285.648 255.999c0-16.349-13.301-29.65-29.649-29.65s-29.649 13.301-29.649 29.65 13.301 29.649 29.649 29.649 29.649-13.301 29.649-29.649zm-44.299 0c0-8.078 6.571-14.65 14.649-14.65s14.649 6.572 14.649 14.65-6.571 14.649-14.649 14.649-14.649-6.572-14.649-14.649z"/><path d="m255.998 59.299c16.349 0 29.649-13.301 29.649-29.65.001-16.348-13.3-29.649-29.649-29.649s-29.649 13.301-29.649 29.649c0 16.35 13.301 29.65 29.649 29.65zm0-44.299c8.078 0 14.649 6.572 14.649 14.649 0 8.078-6.571 14.65-14.649 14.65s-14.649-6.572-14.649-14.65c0-8.077 6.571-14.649 14.649-14.649z"/><path d="m186.497 277.89c-16.349 0-29.649 13.301-29.649 29.649s13.301 29.649 29.649 29.649c13.758 0 25.356-9.421 28.686-22.149h81.629c3.331 12.729 14.928 22.149 28.686 22.149 16.349 0 29.649-13.301 29.649-29.649s-13.301-29.649-29.649-29.649c-13.758 0-25.356 9.421-28.686 22.149h-81.629c-3.33-12.729-14.928-22.149-28.686-22.149zm0 44.298c-8.078 0-14.649-6.572-14.649-14.649s6.571-14.649 14.649-14.649 14.649 6.572 14.649 14.649-6.571 14.649-14.649 14.649zm139.002-29.298c8.078 0 14.649 6.572 14.649 14.649s-6.571 14.649-14.649 14.649-14.649-6.572-14.649-14.649 6.571-14.649 14.649-14.649z"/><path d="m325.499 401.157c-13.758 0-25.356 9.421-28.686 22.15h-81.629c-3.33-12.729-14.928-22.15-28.686-22.15-16.349 0-29.649 13.301-29.649 29.65s13.301 29.649 29.649 29.649c13.758 0 25.356-9.421 28.686-22.149h81.629c3.331 12.729 14.928 22.149 28.686 22.149 16.349 0 29.649-13.301 29.649-29.649.001-16.349-13.3-29.65-29.649-29.65zm-139.002 44.299c-8.078 0-14.649-6.572-14.649-14.649 0-8.078 6.571-14.65 14.649-14.65s14.649 6.572 14.649 14.65c.001 8.077-6.571 14.649-14.649 14.649zm139.002 0c-8.078 0-14.649-6.572-14.649-14.649 0-8.078 6.571-14.65 14.649-14.65s14.649 6.572 14.649 14.65c.001 8.077-6.571 14.649-14.649 14.649z"/><path d="m379.207 339.523c-13.757 0-25.353 9.418-28.685 22.146h-23.464c-4.143 0-7.5 3.358-7.5 7.5s3.357 7.5 7.5 7.5h23.462c3.329 12.731 14.928 22.154 28.688 22.154 16.349 0 29.649-13.301 29.649-29.649 0-16.35-13.301-29.651-29.65-29.651zm0 44.299c-8.078 0-14.649-6.572-14.649-14.649 0-8.078 6.571-14.65 14.649-14.65s14.649 6.572 14.649 14.65c.001 8.077-6.571 14.649-14.649 14.649z"/><path d="m297.098 376.668c4.143 0 7.5-3.358 7.5-7.5s-3.357-7.5-7.5-7.5h-135.624c-3.332-12.727-14.928-22.146-28.685-22.146-16.349 0-29.649 13.301-29.649 29.65s13.301 29.649 29.649 29.649c13.76 0 25.358-9.423 28.688-22.154h135.621zm-164.309 7.154c-8.078 0-14.649-6.572-14.649-14.649 0-8.078 6.571-14.65 14.649-14.65s14.649 6.572 14.649 14.65c.001 8.077-6.571 14.649-14.649 14.649z"/><path d="m255.998 452.698c-16.349 0-29.649 13.301-29.649 29.649s13.301 29.649 29.649 29.649 29.649-13.301 29.649-29.649-13.3-29.649-29.649-29.649zm0 44.299c-8.078 0-14.649-6.572-14.649-14.649s6.571-14.649 14.649-14.649 14.649 6.572 14.649 14.649-6.571 14.649-14.649 14.649z"/></g></g></svg>